PathFileType	4	(X/Y/Z)	TVC_58_Cal_02_0_static_RCNL2025.trc
DataRate	CameraRate	NumFrames	NumMarkers	Units	OrigDataRate	OrigDataStartFrame	OrigNumFrames
100	100	4	27	mm	100	52	102
Frame#	Time	R_Shoulder			L_Shoulder			C7			J_Notch			R_Elbow			L_Elbow			R_Wrist			L_Wrist			R_Asis			L_Asis			R_Psis			L_Psis			Sacral			Thoracic			Sternum			R_Thigh_Lateral			R_Knee_Lateral			R_Shank_Lateral			R_Ankle_Lateral			R_Heel			R_Toe			L_Thigh_Lateral			L_Knee_Lateral			L_Shank_Lateral			L_Ankle_Lateral			L_Heel			L_Toe		
		X1	Y1	Z1	X2	Y2	Z2	X3	Y3	Z3	X4	Y4	Z4	X5	Y5	Z5	X6	Y6	Z6	X7	Y7	Z7	X8	Y8	Z8	X9	Y9	Z9	X10	Y10	Z10	X11	Y11	Z11	X12	Y12	Z12	X13	Y13	Z13	X14	Y14	Z14	X15	Y15	Z15	X16	Y16	Z16	X17	Y17	Z17	X18	Y18	Z18	X19	Y19	Z19	X20	Y20	Z20	X21	Y21	Z21	X22	Y22	Z22	X23	Y23	Z23	X24	Y24	Z24	X25	Y25	Z25	X26	Y26	Z26	X27	Y27	Z27
52	0.51000000	-285.581360	1354.740479	-25.708906	-272.281494	1361.838989	-380.473236	-340.649841	1426.047241	-212.034912	-191.869431	1331.766968	-200.957626	-302.661194	1044.385132	58.188084	-322.825104	1052.238525	-454.361145	-217.164391	806.893188	91.704533	-263.456627	812.613708	-506.321091	-176.810654	909.766663	-56.886623	-165.880173	907.328918	-364.159454	-395.545044	965.361877	-149.526321	-397.210358	958.114746	-261.007050	-396.377701	961.738312	-205.266685	-377.282288	1119.523438	-209.174835	-86.488838	1082.919922	-208.773163	-228.989624	704.613708	33.698410	-236.698090	469.858521	-47.590008	-277.607147	272.015228	-1.567411	-308.511627	70.309227	-97.618347	-356.179718	61.171867	-156.048370	-178.893478	46.418449	-117.810204	-266.114227	676.377686	-445.207428	-234.732056	469.759369	-343.766541	-274.540039	286.615448	-403.594910	-322.816925	65.172310	-315.150269	-363.314880	57.725338	-261.629578	-184.391525	44.562244	-303.682220
53	0.52000000	-285.640900	1354.683472	-25.724794	-272.243164	1361.729980	-380.479675	-340.714325	1426.070190	-211.999313	-191.950409	1331.736450	-200.843109	-302.734222	1044.409302	58.248196	-322.914856	1052.237427	-454.278931	-217.111839	806.880859	91.729053	-263.514305	812.628876	-506.296356	-176.768707	909.788452	-56.802158	-165.727890	907.318359	-364.108002	-395.551727	965.309204	-149.501099	-397.149475	958.094604	-260.957489	-396.350601	961.701904	-205.229294	-377.239258	1119.507080	-209.103500	-86.413429	1083.004639	-208.735519	-228.942444	704.660828	33.774132	-236.665039	469.816132	-47.605991	-277.580139	271.980164	-1.502140	-308.534180	70.316948	-97.604836	-356.175079	61.206772	-156.047684	-178.900711	46.431282	-117.830574	-265.956970	676.402344	-445.112457	-234.707062	469.771240	-343.706909	-274.806152	286.855652	-403.399292	-322.827087	65.171135	-315.122528	-363.329773	57.796047	-261.634430	-184.369446	44.571678	-303.716766
54	0.53000000	-285.584198	1354.681396	-25.628296	-272.295349	1361.694946	-380.356750	-340.749847	1426.010620	-211.958038	-191.955048	1331.802490	-200.797409	-302.698059	1044.428101	58.336880	-322.911560	1052.205933	-454.294006	-217.109985	806.926422	91.799885	-263.551613	812.590454	-506.261810	-176.654572	909.863464	-56.703037	-165.639938	907.406494	-363.987610	-395.418610	965.226562	-149.369537	-397.120789	958.000244	-260.968292	-396.269699	961.613403	-205.168915	-377.236328	1119.507324	-209.098068	-86.350403	1083.108398	-208.691971	-228.851089	704.625183	33.808674	-236.615906	469.863159	-47.512863	-277.602661	271.988159	-1.466534	-308.450775	70.278114	-97.680115	-356.205719	61.269100	-156.019638	-178.962936	46.533768	-117.829521	-265.906219	676.383728	-445.118286	-234.639343	469.790527	-343.602997	-274.809692	286.887329	-403.268890	-322.805054	65.209625	-315.148407	-363.329529	57.802643	-261.641205	-184.346100	44.626266	-303.717499
55	0.54000000	-285.677765	1354.650635	-25.614573	-272.302948	1361.718262	-380.323608	-340.831421	1425.996094	-211.881012	-191.956161	1331.797241	-200.800110	-302.682281	1044.425537	58.337914	-323.011627	1052.203857	-454.161591	-217.105186	806.931519	91.799210	-263.755852	812.594452	-506.345169	-176.729767	909.825256	-56.762589	-165.636978	907.448425	-363.968048	-395.392792	965.165344	-149.358780	-397.044678	958.027832	-260.907532	-396.218735	961.596588	-205.133156	-377.285950	1119.430908	-209.091125	-86.400536	1083.087280	-208.612198	-228.776367	704.582581	33.813786	-236.610687	469.832916	-47.514183	-277.502075	271.988617	-1.373958	-308.418152	70.261620	-97.696869	-356.205811	61.318832	-156.033936	-178.982773	46.498642	-117.866829	-265.781372	676.397583	-445.101013	-234.638779	469.762909	-343.625427	-274.754211	286.896454	-403.192780	-322.788788	65.208824	-315.173035	-363.327576	57.750252	-261.623779	-184.323502	44.581108	-303.748169
